<svg width="493" height="254" viewBox="0 0 493 254" fill="none" xmlns="http://www.w3.org/2000/svg">
<path d="M286.854 154.968C282.477 159.263 280.313 161.387 280.313 161.387C278.148 163.51 275.936 165.682 273.771 167.806C271.607 169.929 269.394 172.101 267.23 174.224C267.23 174.224 265.066 176.348 260.689 180.643C275.262 199.175 289.98 213.798 304.121 224.754C318.213 235.709 331.633 242.948 343.08 247.147C354.479 251.539 363.858 252.697 369.919 253.517C376.123 253.807 379.201 254 379.201 254C379.201 254 379.201 254 379.249 254C394.111 254 409.022 250.718 422.778 244.299C436.534 237.929 449.135 228.518 459.668 216.791C470.202 205.063 478.619 190.971 484.343 175.624C490.066 160.277 493 143.627 493 127.025V126.928C493 110.375 490.066 93.7247 484.343 78.3294C478.619 62.9823 470.202 48.8901 459.668 37.1626C449.135 25.4352 436.534 16.0242 422.778 9.65377C409.022 3.2833 394.111 0.0015413 379.249 0.0015413C379.249 0.0015413 379.249 0.0015413 379.201 0.0015413C361.934 -0.094981 344.33 4.34505 328.747 12.4529C313.115 20.4643 299.503 31.6609 287.623 43.7744C263.863 68.1945 245.923 95.8964 227.886 121.957C211.485 145.75 195.18 168.916 176.422 186.676C167.043 195.507 157.087 202.795 146.601 207.669C136.116 212.592 125.054 215.005 113.655 215.053C92.9245 215.102 72.5313 205.691 57.8615 189.282C43.1437 172.97 34.7263 150.19 34.7744 127.025C34.7744 127.025 34.7744 127.025 34.7744 126.977C34.7744 103.86 43.1915 81.0803 57.9094 64.768C72.531 48.3592 92.9246 38.9483 113.703 38.9966C113.703 38.9966 115.675 39.0931 119.57 39.2861C123.466 39.8653 129.382 40.3961 137.126 43.2435C144.918 45.8979 154.538 50.8205 165.456 58.7836C176.326 66.795 188.446 78.0398 200.904 92.9043C205.136 88.4642 207.3 86.2442 207.3 86.2442C209.417 84.0242 211.533 81.8042 213.697 79.5842C215.814 77.3642 217.93 75.1442 220.094 72.9241C220.094 72.9241 222.211 70.7041 226.492 66.2641C212.399 49.3727 198.21 36.1009 184.743 26.2073C171.227 16.3621 158.578 9.79855 147.756 6.08245C136.982 2.17329 128.228 1.15981 122.505 0.435892C116.685 0.146325 113.799 0.0015413 113.799 0.0015413C113.799 0.0015413 113.799 0.0015413 113.751 0.0015413C98.8887 0.0015413 83.9782 3.2833 70.2223 9.65377C56.4664 16.0242 43.8649 25.4352 33.3316 37.1626C22.7982 48.8901 14.3811 62.9823 8.6575 78.3294C2.93389 93.6764 0 110.327 0 126.928C0 126.928 0 126.977 0 127.025C0 143.578 2.93389 160.229 8.6575 175.624C14.3811 190.971 22.7982 205.063 33.3316 216.791C43.8649 228.518 56.4664 237.929 70.2223 244.299C83.9782 250.67 98.8887 253.952 113.751 254H113.799C129.575 254 145.639 250.429 160.165 243.624C174.738 236.867 187.677 227.167 199.028 216.501C221.73 194.88 238.997 169.833 255.687 145.75C273.868 119.4 291.183 93.1456 311.288 72.6346C321.292 62.4032 332.018 53.8127 343.417 47.9731C354.768 42.0853 366.84 39.0448 379.345 39.0448C379.345 39.0448 379.346 39.0448 379.394 39.0448C400.124 38.9966 420.517 48.4075 435.139 64.8163C449.857 81.1285 458.274 103.908 458.226 127.025C458.226 150.238 449.809 172.97 435.139 189.33C420.517 205.739 400.124 215.15 379.345 215.101C379.345 215.101 377.277 215.005 373.045 214.764C368.86 214.136 362.511 213.509 354.191 210.275C345.87 207.235 335.625 201.781 324.081 192.853C312.586 183.925 299.84 171.425 286.95 155.016L286.854 154.968Z" fill="url(#paint0_linear_433_32)"/>
<defs>
<linearGradient id="paint0_linear_433_32" x1="0" y1="127" x2="493" y2="127" gradientUnits="userSpaceOnUse">
<stop stop-color="#5EB8FF"/>
<stop offset="1" stop-color="#34D399"/>
</linearGradient>
</defs>
</svg>
