<svg width="2066" height="493" viewBox="0 0 2066 493" fill="none" xmlns="http://www.w3.org/2000/svg">
<g clip-path="url(#clip0_433_2)">
<path d="M1149.95 387.919C1146.88 384.151 1142.84 381.094 1138.12 378.964C1133.4 376.835 1127.94 375.907 1122.04 375.907C1118.01 375.907 1114.22 376.371 1110.93 377.326C1107.61 378.282 1104.78 379.456 1102.43 380.63V352.046C1102.43 351.199 1101.74 350.544 1100.92 350.544H1084.07C1083.22 350.544 1082.56 351.226 1082.56 352.046V459.092C1082.56 459.775 1083 460.348 1083.66 460.539C1090.49 462.56 1102.04 464.907 1116.17 464.907C1123.03 464.907 1128.96 463.952 1134.39 461.85C1139.85 459.72 1144.32 456.908 1148.11 452.895C1151.9 448.882 1154.72 444.186 1156.86 438.753C1159 433.348 1159.94 427.232 1159.94 420.38C1159.94 413.527 1159 407.657 1157.33 402.006C1155.68 396.355 1153.08 391.878 1150 387.864L1149.95 387.919ZM1133.4 440.91C1129.15 445.851 1123.47 448.199 1116.12 448.199C1113.04 448.199 1110.19 447.954 1108.08 447.735C1105.94 447.49 1104.04 447.025 1102.62 446.78V397.802C1104.29 396.628 1106.65 395.454 1109.48 394.498C1112.3 393.543 1115.4 393.079 1118.7 393.079C1126.05 393.079 1131.24 395.427 1134.56 400.368C1137.88 405.064 1139.52 411.889 1139.52 420.134C1139.52 428.843 1137.38 435.668 1133.38 440.855L1133.4 440.91Z" fill="white"/>
<path d="M1196.48 377.817H1179.64C1178.79 377.817 1178.13 378.5 1178.13 379.319V461.304C1178.13 462.15 1178.81 462.805 1179.64 462.805H1196.48C1197.33 462.805 1197.99 462.123 1197.99 461.304V379.319C1197.99 378.473 1197.31 377.817 1196.48 377.817Z" fill="white"/>
<path d="M1269.5 378.554C1266.65 377.681 1260.2 376.179 1252.08 376.179C1245.22 376.179 1238.82 376.889 1233.14 378.063C1227.96 379.128 1223.54 380.411 1219.94 381.694C1219.34 381.912 1218.96 382.486 1218.96 383.114V461.549C1218.96 462.396 1219.64 463.051 1220.47 463.051H1237.31C1238.16 463.051 1238.82 462.368 1238.82 461.549V397.256C1238.82 395.836 1238.88 394.962 1238.88 394.962C1241.32 393.761 1250.73 392.123 1260.83 394.007C1263 394.416 1264.7 394.853 1266.12 395.263C1266.97 395.508 1267.88 394.962 1268.02 394.089L1270.57 380.274C1270.71 379.51 1270.27 378.8 1269.53 378.554H1269.5Z" fill="white"/>
<path d="M1341.61 446.452C1341.44 445.551 1340.51 445.005 1339.63 445.278C1337.63 445.933 1335.35 446.479 1332.77 447.025C1329.45 447.735 1326.16 447.953 1322.84 447.953C1313.84 447.953 1307.45 445.606 1303.66 440.664C1299.87 435.723 1297.98 429.116 1297.98 420.653C1297.98 411.698 1300.12 404.873 1304.13 400.177C1308.16 395.235 1314.06 392.888 1321.88 392.888C1325.2 392.888 1328.24 393.242 1331.1 393.816C1333.32 394.28 1335.43 394.88 1337.38 395.59C1338.2 395.891 1339.11 395.399 1339.36 394.553L1342.84 381.448C1343.03 380.711 1342.65 379.947 1341.94 379.647C1334.99 376.944 1327.81 375.661 1320.23 375.661C1313.62 375.661 1307.69 376.835 1302.48 379.182C1297.27 381.53 1292.77 384.588 1289.23 388.601C1285.44 392.614 1282.61 397.31 1280.72 402.716C1278.83 408.121 1277.89 414.018 1277.89 420.38C1277.89 426.741 1278.61 432.856 1280.25 438.507C1281.9 443.913 1284.51 448.636 1288.07 452.622C1291.61 456.389 1296.11 459.693 1301.57 461.795C1306.79 463.924 1313.18 465.098 1320.51 465.098C1325.23 465.098 1329.73 464.389 1334.23 463.679C1338.04 463.078 1341 462.314 1343.12 461.358C1343.75 461.085 1344.08 460.403 1343.97 459.72L1341.63 446.37L1341.61 446.452Z" fill="white"/>
<path d="M1388.55 447.681C1386.83 447.681 1384.93 447.571 1383.67 447.025C1382.02 446.561 1380.6 445.606 1379.64 444.432C1378.46 443.258 1377.99 441.838 1377.5 440.2C1377.25 438.535 1377.03 436.433 1377.03 434.085V352.046C1377.03 351.199 1376.34 350.544 1375.52 350.544H1358.67C1357.82 350.544 1357.16 351.226 1357.16 352.046V437.852C1357.16 442.084 1357.63 445.851 1358.59 449.155C1359.52 452.458 1360.95 455.27 1363.31 457.4C1365.67 459.748 1368.74 461.413 1372.53 462.587C1376.21 463.652 1382.85 464.362 1388.5 464.471C1389.35 464.471 1390.06 463.815 1390.06 462.969V449.237C1390.06 448.418 1389.4 447.735 1388.55 447.735V447.681Z" fill="white"/>
<path d="M1466.26 386.526C1459.87 379.237 1450.65 375.688 1438.82 375.688C1433.85 375.688 1428.89 376.616 1424.14 378.5C1419.39 380.384 1415.14 383.196 1411.36 386.963C1407.57 390.731 1404.5 395.427 1402.36 401.078C1400.21 406.729 1399.04 413.309 1399.04 420.844C1399.04 427.205 1399.75 433.075 1401.86 438.262C1403.75 443.449 1406.36 448.145 1409.9 452.158C1413.44 455.925 1418.19 459.229 1423.62 461.331C1429.3 463.46 1435.69 464.634 1443.27 464.634C1446.34 464.634 1449.19 464.389 1452.02 464.17C1454.63 463.925 1457.45 463.46 1459.84 462.996C1462.45 462.532 1464.56 462.068 1466.45 461.358C1467.88 461.003 1469.03 460.512 1470.02 460.102C1470.57 459.857 1470.95 459.311 1470.95 458.71V445.333C1470.95 444.295 1469.94 443.558 1468.95 443.913C1466.09 444.869 1462.03 445.797 1458.88 446.534C1454.85 447.462 1450.37 447.954 1445.63 447.954C1437.59 447.954 1431.19 446.07 1426.94 442.302C1422.69 438.535 1420.08 433.348 1419.61 426.522H1474.52C1475.31 426.522 1475.95 425.922 1476.03 425.157C1476.08 424.42 1476.19 423.628 1476.19 422.755V418.987C1476.19 404.627 1472.87 393.789 1466.26 386.499V386.526ZM1419.15 411.725C1419.61 409.132 1420.08 406.784 1421.04 404.436C1422 402.088 1423.18 399.958 1424.83 398.075C1426.47 396.191 1428.37 394.771 1430.75 393.597C1433.11 392.423 1435.72 391.959 1438.79 391.959C1441.62 391.959 1444.23 392.669 1446.37 393.597C1448.51 394.526 1450.4 395.945 1451.8 397.829C1453.23 399.713 1454.41 401.842 1455.12 404.19C1455.81 406.702 1456.27 408.995 1456.3 411.725H1419.15Z" fill="white"/>
<path d="M999.503 351.144C994.619 346.285 988.116 343.609 981.202 343.609C974.287 343.609 967.784 346.285 962.9 351.144L923.169 390.676L909.834 377.408C901.767 369.381 891.038 364.959 879.624 364.959C868.21 364.959 857.481 369.381 849.414 377.408C841.347 385.434 836.902 396.109 836.902 407.466C836.902 418.823 841.347 429.498 849.414 437.525C857.481 445.551 868.21 449.974 879.624 449.974C891.038 449.974 901.767 445.551 909.834 437.525L923.169 424.256L962.9 463.788C967.784 468.648 974.287 471.323 981.202 471.323C988.116 471.323 994.619 468.648 999.503 463.788L1037.81 425.676C1042.69 420.816 1045.38 414.346 1045.38 407.466C1045.38 400.586 1042.69 394.116 1037.81 389.257L999.503 351.144ZM860.911 407.466C860.911 402.497 862.859 397.829 866.399 394.307C869.938 390.785 874.63 388.847 879.624 388.847C884.618 388.847 889.31 390.785 892.849 394.307L906.075 407.466L892.849 420.625C889.31 424.147 884.618 426.085 879.624 426.085C874.63 426.085 869.938 424.147 866.399 420.625C862.859 417.103 860.911 412.435 860.911 407.466ZM981.202 368.044C982.052 368.044 982.848 368.371 983.424 368.972L1019.92 405.282C1021.15 406.511 1021.15 408.504 1019.92 409.732L983.424 446.042C982.82 446.643 982.025 446.971 981.202 446.971C980.378 446.971 979.555 446.643 978.979 446.042L940.263 407.521L978.979 368.999C979.583 368.399 980.378 368.071 981.202 368.071V368.044Z" fill="white"/>
<path d="M628.507 464.553C623.321 464.553 619.178 463.679 616.022 461.904C612.867 460.157 610.452 458.137 608.778 455.926C607.077 453.687 605.788 451.858 604.855 450.411H603.4V462.833H591.492V355.267H603.84V394.963H604.855C605.76 393.57 607.05 391.768 608.696 389.584C610.342 387.4 612.702 385.435 615.803 383.715C618.903 381.995 623.074 381.121 628.37 381.121C635.202 381.121 641.183 382.814 646.369 386.199C651.555 389.584 655.589 394.417 658.524 400.641C661.46 406.866 662.915 414.237 662.915 422.7C662.915 431.164 661.46 438.617 658.552 444.896C655.643 451.175 651.61 456.035 646.424 459.447C641.238 462.86 635.284 464.58 628.507 464.58V464.553ZM626.915 453.414C632.101 453.414 636.409 452.022 639.894 449.264C643.378 446.507 646.013 442.767 647.769 438.098C649.525 433.43 650.403 428.242 650.403 422.509C650.403 416.776 649.525 411.698 647.796 407.139C646.067 402.58 643.461 398.921 640.003 396.246C636.546 393.543 632.183 392.205 626.915 392.205C621.647 392.205 617.586 393.461 614.156 396C610.727 398.539 608.12 402.061 606.364 406.62C604.608 411.179 603.73 416.476 603.73 422.537C603.73 428.597 604.635 433.948 606.419 438.589C608.202 443.231 610.836 446.862 614.294 449.483C617.751 452.103 621.976 453.414 626.943 453.414H626.915Z" fill="white"/>
<path d="M680.009 493C677.868 493.055 676.003 492.891 674.356 492.564C672.71 492.236 671.557 491.881 670.872 491.553L674.054 480.715L675.289 481.015C679.46 481.971 682.944 481.78 685.771 480.415C688.597 479.05 691.066 475.446 693.206 469.631L695.539 463.27L665.658 382.131H679.158L701.52 446.534H702.398L724.733 382.131H738.233L703.825 474.545C702.289 478.722 700.368 482.189 698.091 484.947C695.813 487.677 693.179 489.724 690.188 491.035C687.197 492.345 683.795 493.028 680.036 493.028L680.009 493Z" fill="white"/>
<path d="M0 141.5V1.8833H25.4355V61.0171H90.4099V1.8833H115.845V141.528H90.4099V82.3118H25.4355V141.528H0V141.5Z" fill="white"/>
<path d="M234.38 1.8833H259.706V93.0684C259.706 103.061 257.346 111.851 252.654 119.441C247.935 127.031 241.322 132.982 232.789 137.241C224.255 141.528 214.268 143.657 202.826 143.657C191.384 143.657 181.424 141.528 172.863 137.241C164.329 132.955 157.689 127.031 152.943 119.441C148.196 111.851 145.836 103.061 145.836 93.0684V1.8833H171.271V90.9935C171.271 96.8632 172.561 102.05 175.14 106.555C177.72 111.06 181.369 114.609 186.116 117.202C190.863 119.796 196.433 121.079 202.826 121.079C209.219 121.079 214.789 119.796 219.508 117.202C224.228 114.609 227.877 111.06 230.484 106.555C233.09 102.05 234.38 96.8632 234.38 90.9935V1.8833Z" fill="white"/>
<path d="M289.696 1.8833H320.866L362.491 103.006H364.082L405.816 1.8833H437.37V141.528H412.401V45.5375H411.276L372.286 141.036H354.012L315.489 45.3464H314.171V141.5H289.696V1.8833Z" fill="white"/>
<path d="M485.443 141.5H458.224L507.778 1.8833H539.058L588.502 141.528H561.365L523.884 30.5766H522.759L485.47 141.528L485.443 141.5ZM486.403 86.7892H560.35V107.019H486.403V86.7892Z" fill="white"/>
<path d="M724.816 1.8833V141.528H702.014L635.997 46.4111H634.763V141.528H609.327V1.8833H632.129L698.146 96.9997H699.38V1.8833H724.816Z" fill="white"/>
<path d="M815.829 143.384C803.592 143.384 792.589 140.545 782.821 134.866C773.053 129.187 765.37 120.997 759.745 110.323C754.12 99.6479 751.321 86.7892 751.321 71.801C751.321 56.8128 754.12 43.8721 759.745 33.1429C765.37 22.4409 773.053 14.2233 782.821 8.54474C792.589 2.86615 803.592 0.0268555 815.829 0.0268555C828.067 0.0268555 839.125 2.86615 848.783 8.54474C858.441 14.2233 866.124 22.4409 871.776 33.1429C877.429 43.8721 880.255 56.7582 880.255 71.801C880.255 86.8438 877.429 99.6206 871.776 110.323C866.124 121.025 858.469 129.187 848.783 134.866C839.125 140.545 828.122 143.384 815.829 143.384ZM815.829 120.697C823.43 120.697 830.152 118.813 835.997 115.073C841.841 111.333 846.423 105.818 849.743 98.5286C853.063 91.2392 854.737 82.3391 854.737 71.7737C854.737 61.2082 853.063 52.1989 849.743 44.8823C846.423 37.5656 841.841 32.0508 835.997 28.2833C830.152 24.5431 823.43 22.6593 815.829 22.6593C808.229 22.6593 801.506 24.5431 795.634 28.2833C789.763 32.0235 785.153 37.5656 781.833 44.8823C778.513 52.1989 776.839 61.1536 776.839 71.7737C776.839 82.3937 778.513 91.2392 781.833 98.5286C785.153 105.818 789.763 111.333 795.634 115.073C801.506 118.813 808.229 120.697 815.829 120.697Z" fill="white"/>
<path d="M957.001 141.5V1.8833H1048.37V23.0688H982.436V60.553H1043.46V81.4382H982.436V120.342H1048.76V141.528H957.028L957.001 141.5Z" fill="white"/>
<path d="M1192.04 1.8833V141.528H1169.24L1103.22 46.4111H1101.99V141.528H1076.55V1.8833H1099.35L1165.37 96.9997H1166.6V1.8833H1192.04Z" fill="white"/>
<path d="M1272.35 141.5V1.8833H1363.72V23.0688H1297.79V60.553H1358.81V81.4382H1297.79V120.342H1364.11V141.528H1272.38L1272.35 141.5Z" fill="white"/>
<path d="M1391.9 141.5V1.8833H1417.34V120.342H1479.21V141.528H1391.9V141.5Z" fill="white"/>
<path d="M1553.79 141.5V1.8833H1579.22V120.342H1641.1V141.528H1553.79V141.5Z" fill="white"/>
<path d="M1820.57 87.6632C1818.08 90.0929 1816.84 91.2942 1816.84 91.2942C1815.61 92.4954 1814.34 93.724 1813.11 94.9252C1811.87 96.1264 1810.61 97.355 1809.38 98.5562C1809.38 98.5562 1808.14 99.7575 1805.65 102.187C1813.96 112.671 1822.36 120.943 1830.42 127.14C1838.46 133.338 1846.12 137.433 1852.65 139.808C1859.15 142.292 1864.5 142.948 1867.96 143.412C1871.5 143.575 1873.26 143.685 1873.26 143.685C1873.26 143.685 1873.25 143.685 1873.28 143.685C1881.76 143.685 1890.27 141.828 1898.11 138.197C1905.96 134.593 1913.15 129.27 1919.16 122.636C1925.17 116.002 1929.97 108.03 1933.24 99.348C1936.5 90.6663 1938.17 81.2474 1938.17 71.8559V71.8013C1938.17 62.4371 1936.5 53.0183 1933.24 44.3093C1929.97 35.6276 1925.17 27.6557 1919.16 21.0216C1913.15 14.3875 1905.96 9.0638 1898.11 5.46008C1890.27 1.85636 1881.76 -0.000104664 1873.28 -0.000104664C1873.28 -0.000104664 1873.28 -0.000104664 1873.26 -0.000104664C1863.4 -0.0547065 1853.36 2.45698 1844.47 7.04353C1835.55 11.5755 1827.79 17.9093 1821.01 24.7618C1807.46 38.5761 1797.22 54.2468 1786.93 68.9893C1777.58 82.4487 1768.28 95.5531 1757.57 105.6C1752.22 110.596 1746.54 114.718 1740.56 117.476C1734.58 120.26 1728.27 121.626 1721.77 121.653C1709.94 121.68 1698.31 116.356 1689.94 107.074C1681.54 97.8464 1676.74 84.9604 1676.77 71.8559C1676.77 71.8559 1676.77 71.8559 1676.77 71.8286C1676.77 58.7515 1681.57 45.8654 1689.97 36.6377C1698.31 27.3554 1709.94 22.0317 1721.79 22.059C1721.79 22.059 1722.92 22.1136 1725.14 22.2228C1727.36 22.5505 1730.74 22.8508 1735.16 24.4615C1739.6 25.9631 1745.09 28.7478 1751.32 33.2524C1757.52 37.7844 1764.43 44.1455 1771.54 52.5542C1773.96 50.0425 1775.19 48.7866 1775.19 48.7866C1776.4 47.5308 1777.6 46.275 1778.84 45.0191C1780.05 43.7633 1781.25 42.5074 1782.49 41.2516C1782.49 41.2516 1783.7 39.9957 1786.14 37.4841C1778.1 27.9287 1770 20.421 1762.32 14.8243C1754.61 9.25491 1747.39 5.54198 1741.22 3.43981C1735.07 1.22844 1730.08 0.655118 1726.82 0.245604C1723.5 0.0817981 1721.85 -0.000104664 1721.85 -0.000104664C1721.85 -0.000104664 1721.85 -0.000104664 1721.82 -0.000104664C1713.34 -0.000104664 1704.84 1.85636 1696.99 5.46008C1689.14 9.0638 1681.95 14.3875 1675.94 21.0216C1669.94 27.6557 1665.13 35.6276 1661.87 44.3093C1658.6 52.991 1656.93 62.4098 1656.93 71.8013C1656.93 71.8013 1656.93 71.8286 1656.93 71.8559C1656.93 81.2201 1658.6 90.639 1661.87 99.348C1665.13 108.03 1669.94 116.002 1675.94 122.636C1681.95 129.27 1689.14 134.593 1696.99 138.197C1704.84 141.801 1713.34 143.657 1721.82 143.685H1721.85C1730.85 143.685 1740.01 141.664 1748.3 137.815C1756.61 133.993 1763.99 128.505 1770.47 122.472C1783.42 110.241 1793.27 96.0718 1802.79 82.4487C1813.16 67.5424 1823.04 52.6907 1834.51 41.0878C1840.22 35.3 1846.34 30.4404 1852.84 27.137C1859.32 23.8063 1866.2 22.0863 1873.34 22.0863C1873.34 22.0863 1873.34 22.0863 1873.36 22.0863C1885.19 22.059 1896.82 27.3827 1905.17 36.665C1913.56 45.8927 1918.36 58.7788 1918.34 71.8559C1918.34 84.9877 1913.53 97.8464 1905.17 107.101C1896.82 116.384 1885.19 121.707 1873.34 121.68C1873.34 121.68 1872.16 121.626 1869.74 121.489C1867.36 121.134 1863.73 120.779 1858.99 118.95C1854.24 117.23 1848.4 114.145 1841.81 109.094C1835.25 104.044 1827.98 96.9728 1820.63 87.6905L1820.57 87.6632Z" fill="url(#paint0_linear_433_2)"/>
<path d="M1963.17 141.501V1.88379H2015.83C2026.64 1.88379 2035.69 3.87676 2042.99 7.88999C2050.32 11.8759 2055.86 17.3907 2059.62 24.3797C2063.38 31.3688 2065.27 39.3133 2065.27 48.1861C2065.27 57.0589 2063.38 65.0581 2059.56 72.0472C2055.75 79.0362 2050.15 84.4691 2042.74 88.455C2035.34 92.4136 2026.23 94.4066 2015.42 94.4066H1980.57V73.6033H2011.93C2018.27 73.6033 2023.48 72.5113 2027.52 70.3818C2031.58 68.225 2034.54 65.2219 2036.46 61.3725C2038.38 57.5231 2039.34 53.1549 2039.34 48.2134C2039.34 43.272 2038.38 38.8219 2036.46 35.0544C2034.54 31.2869 2031.58 28.3384 2027.52 26.2362C2023.45 24.134 2018.24 23.0966 2011.85 23.0966H1988.58V141.555H1963.14L1963.17 141.501Z" fill="white"/>
</g>
<defs>
<linearGradient id="paint0_linear_433_2" x1="1656.82" y1="71.8286" x2="1938.17" y2="71.8286" gradientUnits="userSpaceOnUse">
<stop stop-color="#5EB8FF"/>
<stop offset="1" stop-color="#34D399"/>
</linearGradient>
<clipPath id="clip0_433_2">
<rect width="2065.27" height="493" fill="white"/>
</clipPath>
</defs>
</svg>
